<?xml version="1.0" encoding="UTF-8"?>
<!-- Created with Inkscape (http://www.inkscape.org/) -->
<svg version="1.1" viewBox="0 0 284.59 284.59" xmlns="http://www.w3.org/2000/svg">
 <g transform="translate(-111.7 -.57785)" display="none" fill-rule="evenodd" stroke-width=".28875">
  <rect transform="rotate(-45)" x="58.519" y="113.74" width="40.116" height="333.78"/>
  <rect transform="rotate(225)" x="-300.69" y="-88.314" width="40.116" height="333.78"/>
 </g>
 <g transform="translate(-111.7 -.57785)">
  <path d="m254 0.57785a142.3 142.3 0 0 0-142.3 142.3 142.3 142.3 0 0 0 142.3 142.3 142.3 142.3 0 0 0 142.3-142.3 142.3 142.3 0 0 0-142.3-142.3zm0 39.416a102.88 102.88 0 0 1 102.88 102.88 102.88 102.88 0 0 1-102.88 102.88 102.88 102.88 0 0 1-102.88-102.88 102.88 102.88 0 0 1 102.88-102.88z" fill-rule="evenodd" stroke-width=".37265"/>
 </g>
</svg>
