<?xml version="1.0" encoding="UTF-8"?>
<svg version="1.1" viewBox="0 0 107.48 107.48" xmlns="http://www.w3.org/2000/svg">
 <g transform="translate(-56.208 -60.492)">
  <path d="m65.233 60.75c-1.2416 0.169-2.4282 0.3685-3.5686 0.91531-7.3752 3.5363-5.4579 13.514-5.4579 20.197v73.051c0 3.1196-0.12713 6.3359 1.7257 9.0264 2.8628 4.1572 7.3791 4.1983 11.919 4.1983h77.04c3.0476 0 6.2306 0.27101 9.2364-0.30669 9.8355-1.8903 7.557-14.682 7.557-21.945v-72.212c0-3.3502 0.0384-6.7039-2.1974-9.4461-2.8448-3.4895-6.8981-3.5688-11.027-3.5688h-61.296c-7.769 0-16.238-0.95791-23.931 0.08925m14.904 11.727c13.891-1.4791 16.255 21.219 2.3091 22.784-3.1171 0.34972-6.2888-0.21706-8.8165-2.1739-6.228-4.821-5.7306-14.591 0.83967-18.845 1.7379-1.1251 3.6374-1.5492 5.6678-1.7653m35.056 34.366c1.7333-2.003 3.2972-3.8805 5.6678-5.1824 8.8195-4.8443 23.007-2.9506 27.997 6.4419 4.7636 8.967 3.4909 20.006 3.4909 29.808v12.385c0 1.4614 0.44986 3.7961-0.54011 4.9986-1.0252 1.2456-2.6322 1.089-4.0781 1.089-3.2886 0-6.5776 0.016-9.8661-2.1e-4 -1.3527-7e-3 -2.7749-0.28297-3.3568-1.6823-0.94673-2.2768-0.21181-6.1497-0.21181-8.6035 0-6.8828 0.66691-14.161-0.15009-20.992-0.57307-4.7924-2.3567-10.06-8.0367-10.477-5.3422-0.39191-8.7366 3.1148-10.214 7.958-0.93561 3.0682-0.70197 6.2801-0.70197 9.4463v13.855c0 2.4019 1.0729 8.2586-1.089 9.8382-1.1873 0.86738-2.7755 0.65767-4.1589 0.65767-3.0755 0-6.1621 0.0775-9.2364-3e-3 -1.2669-0.0332-2.4434-0.46769-3.0285-1.677-0.59134-1.2217-0.3302-2.8792-0.3302-4.1975v-44.712c0-1.2744-0.20803-2.7783 0.28213-3.9853 0.61002-1.5022 2.0687-1.6802 3.4964-1.6825h9.2364c1.2366 0 2.7025-0.23259 3.739 0.5886 1.6682 1.3218 1.089 4.2534 1.089 6.1288m-41.144-6.6453c3.3047-0.6776 7.3307-0.0722 10.706-0.0722 1.3433 0 2.8943-0.17759 3.9162 0.8869 1.8783 1.9564 0.91188 7.095 0.91188 9.609v40.724c0 2.0832-0.07179 4.361-2.519 4.927-3.2609 0.75403-7.3593 0.11126-10.706 0.11105-1.3781 0-2.9168 0.0699-3.9057-1.0725-1.7167-1.9831-0.71252-7.3374-0.71252-9.8432v-40.724c0-1.8603 0.01514-4.0755 2.3091-4.546z"/>
 </g>
</svg>
